<svg class="nightswitch" xmlns="http://www.w3.org/2000/svg" viewBox="0 0 70.2 71.09">
    <g>
        <g>
            <path class="ns-moon" d="M67.85,38.56c3,10.1-1.8,25.4-15.19,29.85A24.33,24.33,0,0,1,24,57c1.62.78,11.93,5.54,22.86.83,10.21-4.41,16.8-15.31,16.33-27.34A20.37,20.37,0,0,1,67.85,38.56Z"/>
            <path class="ns-line" d="M58.5,24.5a23.92,23.92,0,0,0-28.43-2.74A24,24,0,0,0,20.5,50.5"/>
            <line class="ns-line" x1="11.5" y1="45.5" x2="1.5" y2="45.5"/>
            <line class="ns-line" x1="3.36" y1="30.63" x2="12.64" y2="34.36"/>
            <line class="ns-line" x1="17.5" y1="23.5" x2="8.86" y2="17.69"/>
            <line class="ns-line" x1="25.29" y1="16.26" x2="19.5" y2="8.5"/>
            <line class="ns-line" x1="35" y1="12.39" x2="33" y2="2.6"/>
            <line class="ns-line" x1="44.81" y1="11.49" x2="45.19" y2="1.5"/>
            <line class="ns-line" x1="55.2" y1="14.16" x2="58.8" y2="4.83"/>
        </g>
    </g>
</svg>
