<svg xmlns="http://www.w3.org/2000/svg" viewBox="0 0 67.91 71.29">
    <g id="night-switch-element">
        <g>
            <g>
                <path class="ns-moon" d="M66.39,36.55c3.39,11.35-1.56,28-16.4,32.91A26.15,26.15,0,0,1,17.08,53.07c8.35,6.69,19.63,8,28.56,3.43,10.88-5.61,16.47-19.13,12.51-31.95A25.11,25.11,0,0,1,66.39,36.55Z" style="stroke-linejoin:round;fill:none;stroke:#000"/>
                <path class="ns-sun" d="M54.64,21.5a25.07,25.07,0,0,0-28.43-1.74A25.17,25.17,0,0,0,15.64,48.5"/>
                <line class="ns-line" x1="10.64" y1="43.5" x2="0.64" y2="43.5"/>
                <line class="ns-line" x1="0.5" y1="28.63" x2="9.78" y2="32.36"/>
                <line class="ns-line" x1="14.64" y1="22.5" x2="6" y2="16.69"/>
                <line class="ns-line" x1="21.43" y1="15.26" x2="14.85" y2="7.73"/>
                <line class="ns-line" x1="31.14" y1="11.39" x2="29.14" y2="1.6"/>
                <line class="ns-line" x1="40.95" y1="10.49" x2="41.33" y2="0.5"/>
                <line class="ns-line" x1="50.34" y1="13.16" x2="53.94" y2="3.83"/>
            </g>
        </g>
    </g>
</svg>
